<svg>
 <symbol id="icon-candle-sticks" viewBox="0 0 20 20">
    <path class="box1"
          d="M 4 6
             L 10 6
             L 10 16
             L 4 16
             L 4 6
             M 7 1
             L 7 6
             M 7 16
             L 7 20 Z"/>

    <path class="box2"
          d="M 14 4
             L 20 4
             L 20 12
             L 14 12
             L 14 4
             M 17 0
             L 17 4
             M 17 12
             L 17 20 Z"/>

 </symbol>

  <symbol id="icon-ohlc" viewBox="0 0 20 20">
    <path class="box1"
          d="M 6 2
             L 6 18
             M 6 4
             L 10 4
             M 6 14
             L 2 14 Z"/>

    <path class="box2"
          d="M 16 2
             L 16 18
             M 16 8
             L 12 8
             M 16 12
             L 20 12 Z"/>
 </symbol>

 <symbol id="icon-hlc" viewBox="0 0 20 20">
    <path stroke="black" class="box1"
          d="M 6 2
             L 6 18
             M 6 4
             L 10 4 Z"/>

    <path class="box2"
          d="M 16 2
             L 16 18
             M 16 12
             L 20 12 Z"/>
 </symbol>

  <symbol id="icon-area" viewBox="0 0 20 20">
    <path stroke="black" fill="red" stroke-width="3" d="M 4 2
             L 4 19
             M 2 17
             L 20 17 Z"/>
    <path stroke="black" d="M 4 12
             L 6 8
             L 8 10
             L 10 8
             L 12 6
             L 14 10
             L 16 6
             L 18 12
             L 20 4
             L 20 16.5
             L 4 16.5 Z"/>
  </symbol>

  <symbol id="icon-line" viewBox="0 0 20 20">
    <path d="M 4 2
             L 4 19
             M 2 17
             L 20 17 Z"/>
    <path d="M 4 12
             L 6 8
             L 8 10
             L 10 8
             L 12 6
             L 14 10
             L 16 6
             L 18 12
             L 20 4"/>
  </symbol>
</svg>